<?xml version="1.0" encoding="iso-8859-1"?>
<!-- Generator: Adobe Illustrator 19.0.0, SVG Export Plug-In . SVG Version: 6.00 Build 0)  -->
<svg version="1.1"  fill="#fff" id="Layer_1" xmlns="http://www.w3.org/2000/svg" xmlns:xlink="http://www.w3.org/1999/xlink" x="0px" y="0px"
	 viewBox="0 0 511.999 511.999" style="enable-background:new 0 0 511.999 511.999;" xml:space="preserve">
<g>
	<g>
		<path fill="#fff" d="M328.147,139.691c-7.525-18.591-31.214-36.098-53.259-49.057c-2.593,7.931-7.59,15.159-14.828,20.473l-51.691,37.948
			c-2.884,24.801,0.984,37.431,9.771,51.405h110.191C336.091,182.774,336.649,160.695,328.147,139.691z"/>
	</g>
</g>
<g>
	<g>
		<path fill="#fff" d="M230.117,18.656c-0.548-5.368-6.101-8.704-11.093-6.684l-18.201,7.368c-5.002,2.025-6.655,8.288-3.321,12.518
			l11.225,14.243c6.984-5.127,13.281-8.73,23.212-9.595L230.117,18.656z"/>
	</g>
</g>
<g>
	<g>
		<circle cx="92.092" cy="44.844" r="44.844"/>
	</g>
</g>
<g>
	<g>
		<path fill="#fff" d="M253.01,64.938c-7.074-9.633-20.615-11.71-30.249-4.638l-59.192,43.455l-70.593,9.493l12.138-4.927H64.842
			c-16.732,0-30.296,13.564-30.296,30.296l-0.533,347.341c-0.041,14.342,11.552,26,25.894,26.04c0.026,0,0.049,0,0.074,0
			c14.306,0,25.925-11.578,25.966-25.894l0.543-191.977c0-0.025-0.001-0.049-0.001-0.074h11.199l0.015,191.979
			c0.001,14.342,11.627,25.967,25.969,25.965c14.341-0.001,25.966-11.628,25.965-25.969c-0.001-13.856-0.472-310.043-0.472-323.902
			l-50.422-5.987l76.065-10.229c3.59-0.483,7.002-1.858,9.922-4.003l63.642-46.722C258.007,88.114,260.083,74.571,253.01,64.938z"/>
	</g>
</g>
<g>
	<g>
		<path fill="#fff" d="M468.76,54.224c-3.015-0.79-6.052-0.389-8.637,0.896l3.893-15.337c1.68-6.618-2.324-13.345-8.941-15.024
			c-6.623-1.68-13.346,2.322-15.026,8.941l-48.443,190.853c-1.756,0-181.164,0-182.915,0c-6.828,0-12.363,5.535-12.363,12.363
			s5.535,12.363,12.363,12.363h1.426l29.44,255.283c0.472,4.087,3.931,7.437,8.044,7.437h67.329
			c-7.388-9.096-10.8-28.516-11.218-40.39c-0.629-17.882,7.954-40.321,25.512-66.694c10.36-15.562,21.815-29.425,29.211-37.909
			l-13.865-42.106c-4.509-13.692,5.412-27.946,19.834-28.453c0.627-0.022,19.76-0.704,20.387-0.704c3.375,0,6.633,0.777,9.567,2.219
			l5.474-48.681h1.39c5.656,0,10.591-3.839,11.983-9.321l4.777-18.819c2.389,2.631,5.721,4.05,9.145,4.05
			c5.483,0,10.493-3.675,11.95-9.227l38.498-146.641C479.312,62.717,475.364,55.959,468.76,54.224z"/>
	</g>
</g>
<g>
	<g>
		<path fill="#fff" d="M446.713,464.677c-1.196-33.927-38-80.131-50.546-92.083l1.695-49.905c0.602-2.381,0.049-4.907-1.494-6.818
			c-1.485-1.839-3.72-2.903-6.073-2.903c-0.092,0-0.183,0.001-0.275,0.004l-18.919,0.666c-5.199,0.183-8.764,5.311-7.141,10.243
			l15.727,47.764c-11.675,12.804-55.665,63.382-54.47,97.312c0.336,9.542,2.275,18.586,5.504,26.789
			c2.292,5.827,7.919,16.25,14.181,16.25h82.647c6.365,0,12.068-10.555,14.285-16.522
			C445.323,486.082,447.099,475.635,446.713,464.677z"/>
	</g>
</g>
<g>
</g>
<g>
</g>
<g>
</g>
<g>
</g>
<g>
</g>
<g>
</g>
<g>
</g>
<g>
</g>
<g>
</g>
<g>
</g>
<g>
</g>
<g>
</g>
<g>
</g>
<g>
</g>
<g>
</g>
</svg>
